0
SECTION
2
HEADER
9
$INSUNITS
70
4
9
$ACADVER
1
AC1014
9
$HANDSEED
5
FFFF
0
ENDSEC
0
SECTION
2
TABLES
0
TABLE
2
VPORT
5
8
100
AcDbSymbolTable
0
ENDTAB
0
TABLE
2
LTYPE
5
5
100
AcDbSymbolTable
0
LTYPE
5
14
100
AcDbSymbolTableRecord
100
AcDbLinetypeTableRecord
2
BYBLOCK
70
0
0
LTYPE
5
15
100
AcDbSymbolTableRecord
100
AcDbLinetypeTableRecord
2
BYLAYER
70
0
0
ENDTAB
0
TABLE
2
LAYER
5
2
100
AcDbSymbolTable
70
2
0
LAYER
5
50
100
AcDbSymbolTableRecord
100
AcDbLayerTableRecord
2
0
70
0
6
CONTINUOUS
0
ENDTAB
0
TABLE
2
STYLE
5
3
100
AcDbSymbolTable
70
1
0
STYLE
5
11
100
AcDbSymbolTableRecord
100
AcDbTextStyleTableRecord
2
STANDARD
70
0
0
ENDTAB
0
TABLE
2
VIEW
5
6
100
AcDbSymbolTable
70
0
0
ENDTAB
0
TABLE
2
UCS
5
7
100
AcDbSymbolTable
70
0
0
ENDTAB
0
TABLE
2
APPID
5
9
100
AcDbSymbolTable
70
2
0
APPID
5
12
100
AcDbSymbolTableRecord
100
AcDbRegAppTableRecord
2
ACAD
70
0
0
ENDTAB
0
TABLE
2
DIMSTYLE
5
A
100
AcDbSymbolTable
70
1
0
ENDTAB
0
TABLE
2
BLOCK_RECORD
5
1
100
AcDbSymbolTable
70
1
0
BLOCK_RECORD
5
1F
100
AcDbSymbolTableRecord
100
AcDbBlockTableRecord
2
*MODEL_SPACE
0
BLOCK_RECORD
5
1B
100
AcDbSymbolTableRecord
100
AcDbBlockTableRecord
2
*PAPER_SPACE
0
ENDTAB
0
ENDSEC
0
SECTION
2
BLOCKS
0
BLOCK
5
20
100
AcDbEntity
100
AcDbBlockBegin
2
*MODEL_SPACE
0
ENDBLK
5
21
100
AcDbEntity
100
AcDbBlockEnd
0
BLOCK
5
1C
100
AcDbEntity
100
AcDbBlockBegin
2
*PAPER_SPACE
0
ENDBLK
5
1D
100
AcDbEntity
100
AcDbBlockEnd
0
ENDSEC
0
SECTION
2
ENTITIES
0
LWPOLYLINE
5
100
100
AcDbEntity
8
0
100
AcDbPolyline
90
29
70
1
43
0.0
10
15.975892966504677
20
-5.3029089713902273
10
16.302999114990001
20
-5.3029089713902273
10
16.302999114990001
20
-3.039999961853002
10
24.267999649048004
20
-3.039999961853006
10
24.267999649048004
20
-24.756999969482003
10
0
20
-24.756999969482003
10
0
20
-3.039999961853002
10
7.8300002098080004
20
-3.039999961853002
10
7.8300002098080004
20
-6.1639999389650004
10
8.1758929665046782
20
-6.1639999389650004
10
8.1758929665046765
20
-3.2529089713902311
10
8.4758929665046736
20
-2.7529089713902315
10
9.1258929665046757
20
-2.7529089713902306
10
9.1258929665046757
20
-2.3529089713902303
42
-0.41421356237309503
10
9.3258929665046768
20
-2.152908971390231
10
10.775892966504676
20
-2.1529089713902301
42
-0.41421356237309587
10
10.975892966504677
20
-2.3529089713902311
10
10.975892966504677
20
-2.5529089713902304
42
0.41421356237309503
10
11.175892966504676
20
-2.7529089713902315
10
12.175892966504676
20
-2.7529089713902302
42
0.41421356237309587
10
12.375892966504676
20
-2.5529089713902291
10
12.375892966504676
20
-2.3529089713902298
42
-0.41421356237309503
10
12.575892966504675
20
-2.1529089713902296
10
14.825892966504675
20
-2.1529089713902296
42
-0.41421356237309503
10
15.025892966504674
20
-2.3529089713902298
10
15.025892966504674
20
-2.55290897139023
42
0.41421356237309503
10
15.225892966504675
20
-2.7529089713902306
10
15.675892966504675
20
-2.7529089713902306
10
15.975892966504674
20
-3.2529089713902297
0
CIRCLE
5
101
100
AcDbEntity
8
0
100
AcDbCircle
10
12.133999824524002
20
-13.454954470436117
30
-2.4286128663675299e-16
40
0.99999999999999867
210
-0
220
0
230
1
0
LWPOLYLINE
5
102
100
AcDbEntity
8
0
100
AcDbPolyline
90
4
70
1
43
0.0
10
22.092028130355857
20
-7.4140618974735428
10
22.092028130355853
20
-8.0140618974736828
10
23.18202813035581
20
-8.0140618974736899
10
23.182028130355814
20
-7.4140618974735499
0
LWPOLYLINE
5
103
100
AcDbEntity
8
0
100
AcDbPolyline
90
4
70
1
43
0.0
10
22.092028130355871
20
-4.9140618974746531
10
22.092028130355867
20
-5.5140618974735229
10
23.182028130355825
20
-5.51406189747353
10
23.182028130355828
20
-4.9140618974746593
0
LWPOLYLINE
5
104
100
AcDbEntity
8
0
100
AcDbPolyline
90
4
70
1
43
0.0
10
20.202028130355814
20
-4.9140618974746424
10
20.20202813035581
20
-5.5140618974735123
10
21.292028130356023
20
-5.5140618974735194
10
21.292028130356027
20
-4.9140618974746477
0
LWPOLYLINE
5
105
100
AcDbEntity
8
0
100
AcDbPolyline
90
4
70
1
43
0.0
10
20.202028130355799
20
-7.4140618974735322
10
20.202028130355796
20
-8.0140618974736721
10
21.292028130356009
20
-8.0140618974736793
10
21.292028130356012
20
-7.4140618974735384
0
LWPOLYLINE
5
106
100
AcDbEntity
8
0
100
AcDbPolyline
90
4
70
1
43
0.0
10
22.092028130355846
20
-9.9140618974737027
10
22.092028130355843
20
-10.514061897472573
10
23.182028130355793
20
-10.51406189747258
10
23.1820281303558
20
-9.9140618974737098
0
LWPOLYLINE
5
107
100
AcDbEntity
8
0
100
AcDbPolyline
90
4
70
1
43
0.0
10
20.202028130355785
20
-9.914061897473692
10
20.202028130355782
20
-10.514061897472562
10
21.292028130355995
20
-10.514061897472569
10
21.292028130356002
20
-9.9140618974736974
0
CIRCLE
5
108
100
AcDbEntity
8
0
100
AcDbCircle
10
21.692028130355951
20
-4.3140618974745113
30
-6.9388939039072284e-17
40
0.39999999999992314
210
9.8607613152626695e-32
220
-5.4838717215787696e-46
230
1
0
CIRCLE
5
109
100
AcDbEntity
8
0
100
AcDbCircle
10
21.692028130355915
20
-11.114061897472711
30
-6.9388939039072284e-17
40
0.39999999999992314
210
9.8607613152626695e-32
220
-5.4838717215787696e-46
230
1
0
CIRCLE
5
110
100
AcDbEntity
8
0
100
AcDbCircle
10
21.692028130355915
20
-11.114061897472711
30
-6.9388939039072284e-17
40
0.39999999999992314
210
9.8607613152626695e-32
220
-5.4838717215787696e-46
230
1
0
CIRCLE
5
111
100
AcDbEntity
8
0
100
AcDbCircle
10
22.62497816965293
20
-19.300614254927119
30
0
40
0.29999999999999954
210
2.7369110631344108e-48
220
-3.0814879110195774e-33
230
1
0
CIRCLE
5
112
100
AcDbEntity
8
0
100
AcDbCircle
10
15.174978169653437
20
-19.300614254927126
30
0
40
0.29999999999999954
210
2.7369110631344108e-48
220
-3.0814879110195774e-33
230
1
0
CIRCLE
5
113
100
AcDbEntity
8
0
100
AcDbCircle
10
15.174978169653437
20
-19.300614254927126
30
0
40
0.29999999999999954
210
2.7369110631344108e-48
220
-3.0814879110195774e-33
230
1
0
CIRCLE
5
114
100
AcDbEntity
8
0
100
AcDbCircle
10
9.1249781696529411
20
-19.300614254927105
30
-5.5511151231257827e-16
40
0.2999999999999996
210
-2.2579516270858854e-47
220
2.4651903288156597e-32
230
1
0
CIRCLE
5
115
100
AcDbEntity
8
0
100
AcDbCircle
10
1.6749781696534474
20
-19.300614254927112
30
-5.5511151231257827e-16
40
0.2999999999999996
210
-2.2579516270858854e-47
220
2.4651903288156597e-32
230
1
0
CIRCLE
5
116
100
AcDbEntity
8
0
100
AcDbCircle
10
1.674978169653448
20
-19.300614254927112
30
-5.5511151231257827e-16
40
0.2999999999999996
210
-2.2579516270858854e-47
220
2.4651903288156597e-32
230
1
0
LWPOLYLINE
5
117
100
AcDbEntity
8
0
100
AcDbPolyline
90
4
70
1
43
0.0
10
2.5249781693749549
20
-17.269481768472012
10
2.5249781693749473
20
-17.590614255011509
10
2.7749781693749505
20
-17.590614255011513
10
2.7749781693749611
20
-17.269481768472009
0
LWPOLYLINE
5
118
100
AcDbEntity
8
0
100
AcDbPolyline
90
4
70
1
43
0.0
10
3.0249781692129449
20
-17.269481768472005
10
3.0249781692129449
20
-17.590614255011509
10
3.2749781692129449
20
-17.590614255011509
10
3.2749781692129454
20
-17.269481768471998
0
LWPOLYLINE
5
119
100
AcDbEntity
8
0
100
AcDbPolyline
90
4
70
1
43
0.0
10
16.024978169374947
20
-17.269481768472026
10
16.024978169374936
20
-17.590614255011523
10
16.27497816937494
20
-17.590614255011523
10
16.27497816937495
20
-17.269481768472023
0
LWPOLYLINE
5
120
100
AcDbEntity
8
0
100
AcDbPolyline
90
4
70
1
43
0.0
10
16.524978169212932
20
-17.269481768472019
10
16.524978169212932
20
-17.590614255011523
10
16.774978169212936
20
-17.590614255011523
10
16.774978169212932
20
-17.269481768472016
0
ENDSEC
0
SECTION
2
OBJECTS
0
DICTIONARY
5
C
100
AcDbDictionary
3
ACAD_GROUP
350
D
3
ACAD_MLINESTYLE
350
17
0
DICTIONARY
5
D
100
AcDbDictionary
0
DICTIONARY
5
1A
330
C
100
AcDbDictionary
0
DICTIONARY
5
17
100
AcDbDictionary
0
ENDSEC
0
EOF
